<?xml version="1.0" standalone="no"?>
<!DOCTYPE svg PUBLIC "-//W3C//DTD SVG 20010904//EN"
 "http://www.w3.org/TR/2001/REC-SVG-20010904/DTD/svg10.dtd">
<svg version="1.0" xmlns="http://www.w3.org/2000/svg"
 width="350.000000pt" height="350.000000pt" viewBox="0 0 350.000000 350.000000"
 preserveAspectRatio="xMidYMid meet">
<metadata>
Created by potrace 1.14, written by Peter Selinger 2001-2017
</metadata>
<g transform="translate(0.000000,350.000000) scale(0.100000,-0.100000)"
fill="#000000" stroke="none">
<path d="M930 3307 c0 -14 4 -37 10 -51 13 -36 -8 -34 -45 4 -15 16 -32 27
-37 24 -13 -8 -9 -19 17 -48 22 -24 34 -56 21 -56 -3 0 -21 9 -40 21 -44 26
-50 6 -11 -31 30 -28 19 -46 -19 -29 -14 7 -29 9 -34 4 -4 -4 -2 -10 5 -12 32
-11 79 -51 97 -82 21 -36 20 -21 14 -321 -1 -44 5 -96 15 -127 8 -28 15 -80
14 -117 l-2 -65 -65 -63 c-68 -66 -78 -78 -121 -143 -87 -131 -137 -242 -189
-416 -33 -113 -37 -138 -37 -235 0 -60 -5 -125 -12 -145 -6 -20 -11 -49 -11
-65 0 -16 -2 -45 -6 -65 -4 -23 2 -61 14 -105 11 -38 24 -91 28 -119 4 -27 8
-54 10 -60 84 -369 316 -797 453 -835 118 -33 261 19 396 144 11 10 63 51 115
90 112 84 235 148 336 175 239 63 483 57 648 -18 56 -26 81 -26 106 -1 31 31
25 63 -26 119 l-46 51 21 34 c30 48 28 106 -5 146 -36 42 -82 64 -211 98 -115
31 -151 46 -220 94 -94 64 -166 66 -216 6 -15 -18 -30 -44 -34 -58 -11 -46
-41 -95 -83 -133 -86 -79 -331 -220 -350 -201 -5 5 -10 58 -12 118 l-3 108
-42 38 c-40 35 -42 40 -44 96 -3 79 -32 194 -62 241 -13 21 -46 58 -73 83 -87
79 -95 101 -63 185 12 32 22 82 23 112 2 62 9 71 111 133 64 39 103 76 189
174 33 38 72 76 88 86 27 16 34 17 81 3 61 -16 79 -20 169 -27 78 -7 194 -43
293 -91 39 -18 90 -36 114 -39 24 -3 111 -17 193 -31 150 -25 247 -40 335 -51
26 -3 75 -15 108 -26 33 -11 92 -24 130 -28 39 -5 96 -20 127 -35 56 -26 145
-39 168 -25 19 12 -34 65 -121 121 -43 28 -79 56 -79 61 0 5 16 16 35 24 26
10 35 20 35 38 0 22 -3 23 -67 24 -38 0 -84 2 -103 4 -19 3 -53 -2 -75 -10
-23 -7 -57 -11 -80 -8 -58 8 -225 75 -367 148 l-122 63 -106 0 c-88 1 -110 4
-134 20 -16 11 -50 27 -75 35 -46 15 -46 15 -46 62 -1 62 -12 73 -62 61 -51
-13 -87 5 -138 69 -25 31 -50 51 -67 55 -15 3 -28 11 -28 18 0 25 12 45 26 45
25 0 114 74 145 119 41 62 41 136 0 206 -50 86 -123 169 -171 193 -75 38 -170
24 -170 -25 0 -24 -142 -107 -187 -109 -27 -2 -30 -5 -31 -39 -1 -27 -11 -44
-42 -74 -47 -45 -50 -69 -14 -116 30 -39 29 -74 -3 -86 -16 -6 -29 -2 -48 13
-31 24 -45 56 -51 118 -3 25 -17 79 -31 120 -36 105 -37 227 -3 328 20 60 22
75 10 82 -20 12 -38 2 -64 -37 l-24 -34 -16 22 c-9 13 -16 29 -16 35 0 6 -9
19 -20 29 -20 18 -20 17 -20 -8z"/>
</g>
</svg>
